<svg width="1345" height="303" viewBox="0 0 1345 303" fill="none" xmlns="http://www.w3.org/2000/svg">
<path d="M103.982 156.973C103.982 156.973 103.982 156.979 103.982 156.983C108.368 174.311 122.561 187.751 141.858 191.54C137.295 186.768 135.808 179.251 139.566 172.741C139.566 172.741 174.61 112.445 175.987 110.801C176.011 110.773 176.033 110.743 176.056 110.713C185.011 98.2191 201.911 89.6066 221.142 89.6066C224.776 89.6066 228.323 89.9073 231.746 90.4791L230.553 89.075C204.687 60.463 156.443 63.8988 135.954 99.3866L108.683 146.62C106.361 150.643 103.994 156.94 103.982 156.973Z" fill="url(#paint0_linear_8464_6189)"/>
<path d="M240.584 196.554C240.584 190.333 239.374 184.341 237.137 178.718C235.731 186.363 229.677 192.697 221.605 192.697H153.962L151.938 192.609C151.938 192.609 151.932 192.609 151.93 192.609C151.927 192.609 151.925 192.609 151.922 192.609C127.568 192.134 109.095 177.208 103.976 156.986C103.976 156.983 103.976 156.981 103.976 156.979C103.976 156.979 103.976 156.979 103.975 156.979C90.974 193.741 120.799 232.726 158.73 232.726H216.443C219.774 232.726 225.617 231.91 225.818 231.888C225.819 231.888 225.82 231.887 225.821 231.886C235.087 222.067 240.585 209.828 240.585 196.555L240.584 196.554Z" fill="url(#paint1_linear_8464_6189)"/>
<path d="M265.304 146.677L237.999 99.3846C236.14 96.164 231.754 90.4935 231.745 90.4829C228.321 89.911 224.775 89.6104 221.141 89.6104C201.91 89.6104 185.011 98.2229 176.055 110.716C176.051 110.724 176.045 110.731 176.039 110.739C183.127 104.105 195.296 105.13 200.544 114.219L234.382 172.829C234.457 172.959 236.09 176.265 236.09 176.265L236.631 177.482C239.195 183.461 240.589 189.877 240.589 196.556C240.589 209.828 235.09 222.068 225.825 231.887C225.824 231.887 225.822 231.889 225.821 231.89C263.863 225.212 285.636 181.894 265.304 146.677Z" fill="url(#paint2_linear_8464_6189)"/>
<path d="M337.395 147.812C325.003 174.825 314.603 199.07 313.758 201.028C312.678 203.831 313.961 204.405 322.436 204.405H332.33L338.172 191.81C341.211 185.057 347.289 171.55 351.442 162.028C354.13 155.573 357.174 149.271 360.559 143.152C361.302 142.274 368.224 155.781 376.227 172.664L390.341 203.493L400.471 204.169C406.144 204.608 410.601 204.371 410.601 203.73C410.601 203.088 407.224 195.052 389.97 157.908C386.593 150.716 379.299 134.643 373.458 122.048C367.616 109.453 362.146 99.0194 361.302 98.8168C360.458 98.6142 349.551 120.427 337.395 147.812Z" fill="white"/>
<path d="M434.473 138.237C434.473 182.978 435.79 188.887 447.304 198.612C453.146 203.609 456.421 204.487 467.294 204.487C482.489 204.487 490.728 200.773 497.886 190.98C502.681 184.227 502.884 181.863 503.559 140.803L504.538 98.0547H484.447V178.183L478.774 182.539C471.413 188.178 467.057 188.178 459.663 182.539L453.888 178.183V98.0547H434.473V138.237Z" fill="white"/>
<path d="M530.035 107.813V117.606H562.62V204.487H584.366V117.606H616.917V98.0547H530.035V107.813Z" fill="white"/>
<path d="M686.44 107.813V117.606H696.199C701.801 117.68 707.337 118.826 712.508 120.982C719.351 124.857 724.746 130.854 727.877 138.067C731.009 145.28 731.706 153.317 729.864 160.962C727.399 170.822 713.892 183.856 703.762 186.152C698.762 187.156 693.601 187.038 688.652 185.807C683.703 184.575 679.088 182.261 675.142 179.032C671.195 175.802 668.013 171.736 665.827 167.128C663.641 162.521 662.505 157.485 662.5 152.385V143.673H642.982V153.803C643.342 163.949 646.521 173.794 652.164 182.233C657.806 190.673 665.688 197.373 674.926 201.583C685.562 205.939 710.988 205.264 720.983 200.266C751.036 184.936 759.207 144.754 737.529 116.289C729.931 106.159 712.136 98.0547 698.022 98.0547H686.508L686.44 107.813Z" fill="white"/>
<path d="M793.075 147.354C785.68 174.705 778.961 198.612 778.522 200.57C777.441 203.947 778.758 204.487 786.795 204.487H796.351L802.429 180.85C805.805 168.019 809.351 156.302 810.229 154.783C811.107 153.263 816.104 162.177 822.621 177.575C828.497 191.723 834.575 203.204 836.128 203.204C837.681 203.204 843.725 191.723 849.803 177.575C856.557 162.38 861.52 153.06 862.601 154.783C863.681 156.505 866.754 168.019 870.232 180.85L876.513 204.487H886.102C893.936 204.487 895.456 203.812 894.578 200.57C883.063 157.788 865.674 98.0547 864.593 98.0547C863.513 98.0547 857.435 111.73 850.479 128.445C843.523 145.159 836.972 158.835 836.364 158.835C835.756 158.835 829.408 145.159 822.452 128.445C815.496 111.73 808.946 98.0547 808.135 98.0547C807.325 98.0547 800.47 120.206 793.075 147.354Z" fill="white"/>
<path d="M948.165 136.481C938.812 157.787 927.905 181.66 924.056 189.697L917.1 204.487H937.934L951.44 174.502C958.835 158.193 965.555 144.112 966.23 143.234C966.905 142.356 973.895 155.761 981.83 172.982L995.945 204.25L1006.07 204.487C1018.03 204.487 1018.03 206.411 1004.56 177.473C999.997 167.917 991.319 148.772 985.004 135.096C968.931 99.7088 968.29 98.1893 966.77 98.1893C965.96 98.0542 957.721 115.41 948.165 136.481Z" fill="white"/>
<path d="M1040.48 107.813V117.369L1056.32 118.045L1071.82 118.619L1072.5 161.401L1072.9 204.42H1092.45V117.606H1125.04V98.0547H1040.48V107.813Z" fill="white"/>
<path d="M1191.42 105.112C1189.9 108.995 1180.55 129.862 1170.79 151.372C1161.03 172.881 1151.44 193.715 1149.92 197.396L1146.88 204.588H1167.51L1181.66 173.084C1189.26 155.93 1196.22 142.221 1196.86 142.896C1197.5 143.572 1204.02 157.45 1211.41 173.725L1224.92 203.474L1234.88 204.149C1244.67 204.791 1245.01 204.588 1243.35 199.793C1239.98 188.92 1197.97 98.4933 1196.08 98.1556C1195.34 98.0543 1193.14 101.296 1191.42 105.112Z" fill="white"/>
<defs>
<linearGradient id="paint0_linear_8464_6189" x1="130.945" y1="185.725" x2="197.663" y2="71.2289" gradientUnits="userSpaceOnUse">
<stop stop-color="#A02B23"/>
<stop offset="0.35" stop-color="#C0662F"/>
<stop offset="1" stop-color="#F4C844"/>
</linearGradient>
<linearGradient id="paint1_linear_8464_6189" x1="237.125" y1="194.912" x2="104.836" y2="194.836" gradientUnits="userSpaceOnUse">
<stop stop-color="#A02B23"/>
<stop offset="0.35" stop-color="#C0662F"/>
<stop offset="1" stop-color="#F4C844"/>
</linearGradient>
<linearGradient id="paint2_linear_8464_6189" x1="193.681" y1="99.355" x2="259.035" y2="212.636" gradientUnits="userSpaceOnUse">
<stop stop-color="#A02B23"/>
<stop offset="0.35" stop-color="#C0662F"/>
<stop offset="1" stop-color="#F4C844"/>
</linearGradient>
</defs>
</svg>
